<svg width="64" height="64" viewBox="0 0 64 64" fill="none" xmlns="http://www.w3.org/2000/svg">
<path d="M31.996 0C14.328 0 0 14.6898 0 32.811C0 47.3047 9.168 59.6007 21.888 63.9431C23.488 64.2454 24.072 63.2323 24.072 62.3622C24.072 61.5819 24.044 59.519 24.028 56.782C15.128 58.7633 13.248 52.3824 13.248 52.3824C11.796 48.5915 9.696 47.5825 9.696 47.5825C6.788 45.5482 9.912 45.589 9.912 45.589C13.124 45.8219 14.812 48.9714 14.812 48.9714C17.668 53.9838 22.304 52.5377 24.128 51.6962C24.416 49.576 25.244 48.1299 26.16 47.3088C19.056 46.4796 11.584 43.665 11.584 31.0953C11.584 27.5127 12.832 24.5838 14.88 22.288C14.548 21.4587 13.452 18.1212 15.192 13.6073C15.192 13.6073 17.88 12.7249 23.992 16.9692C26.544 16.2421 29.28 15.8785 32.004 15.8663C34.72 15.8826 37.46 16.2421 40.016 16.9733C46.124 12.729 48.808 13.6113 48.808 13.6113C50.552 18.1294 49.456 21.4628 49.128 22.2921C51.18 24.5878 52.416 27.5168 52.416 31.0994C52.416 43.7017 44.936 46.4755 37.808 47.2884C38.956 48.3015 39.98 50.3032 39.98 53.3628C39.98 57.7502 39.94 61.2878 39.94 62.3622C39.94 63.2405 40.516 64.2617 42.14 63.939C54.84 59.5925 64 47.3007 64 32.811C64 14.6898 49.672 0 31.996 0Z" fill="black"/>
</svg>
